#Comment line ignore any data following # character 
#Hierarchical Translation and Rotation (.htr) file 
[Header]	
#Header keywords are followed by a single value 
FileType HTR		#Single word string
DataType HTRS		#Translation followed by rotation and scale data
FileVersion 1		#integer
NumSegments 84		#integer
NumFrames 2		#integer
DataFrameRate 30		#integer, data frame rate in this file
EulerRotationOrder ZYX
CalibrationUnits mm
RotationUnits Degrees
GlobalAxisofGravity Y
BoneLengthAxis Y
ScaleFactor 1.00
[SegmentNames&Hierarchy]
#CHILD	PARENT
MASTER GLOBAL
root MASTER
chest root
L_mid_tent01 root
R_mid_tent01 root
spine01 root
Bip01_Neck chest
L_humerus chest
R_humerus chest
weapon_bone chest
Bip01_Head Bip01_Neck
eye_left_bone Bip01_Head
eye_right_bone Bip01_Head
L_forearm L_humerus
L_front_hand L_forearm
L_weapon_bone L_forearm
L_front_hand01_01 L_front_hand
L_front_hand02_01 L_front_hand
L_front_hand03_01 L_front_hand
L_front_hand01_02 L_front_hand01_01
L_front_hand02_02 L_front_hand02_01
L_front_hand03_02 L_front_hand03_01
R_forearm R_humerus
R_front_hand R_forearm
R_weapon_bone R_forearm
R_front_hand01_01 R_front_hand
R_front_hand02_01 R_front_hand
R_front_hand03_01 R_front_hand
R_front_hand01_02 R_front_hand01_01
R_front_hand02_02 R_front_hand02_01
R_front_hand03_02 R_front_hand03_01
null_rope01_connect L_mid_tent01
Rope1_Seg01 null_rope01_connect
Rope1_Seg02 Rope1_Seg01
Rope1_Seg03 Rope1_Seg02
Rope1_Seg04 Rope1_Seg03
Rope1_Seg05 Rope1_Seg04
Rope1_Seg06 Rope1_Seg05
Rope1_Seg07 Rope1_Seg06
Rope1_Seg09 Rope1_Seg07
L_mid_hand01 Rope1_Seg09
L_mid_hand02 Rope1_Seg09
L_mid_hand03 Rope1_Seg09
null_rope02_connect R_mid_tent01
Rope2_Seg01 null_rope02_connect
Rope2_Seg02 Rope2_Seg01
Rope2_Seg03 Rope2_Seg02
Rope2_Seg04 Rope2_Seg03
Rope2_Seg05 Rope2_Seg04
Rope2_Seg06 Rope2_Seg05
Rope2_Seg07 Rope2_Seg06
Rope2_Seg09 Rope2_Seg07
R_mid_hand01 Rope2_Seg09
R_mid_hand02 Rope2_Seg09
R_mid_hand03 Rope2_Seg09
spine02 spine01
spine03 spine02
pelvis spine03
null_rope03_connect pelvis
null_rope04_connect pelvis
Rope3_Seg01 null_rope03_connect
Rope3_Seg02 Rope3_Seg01
Rope3_Seg03 Rope3_Seg02
Rope3_Seg04 Rope3_Seg03
Rope3_Seg05 Rope3_Seg04
Rope3_Seg06 Rope3_Seg05
Rope3_Seg07 Rope3_Seg06
Rope3_Seg08 Rope3_Seg07
Rope3_Seg09 Rope3_Seg08
R_rear_hand01 Rope3_Seg09
R_rear_hand02 Rope3_Seg09
R_rear_hand03 Rope3_Seg09
Rope4_Seg01 null_rope04_connect
Rope4_Seg02 Rope4_Seg01
Rope4_Seg03 Rope4_Seg02
Rope4_Seg04 Rope4_Seg03
Rope4_Seg05 Rope4_Seg04
Rope4_Seg06 Rope4_Seg05
Rope4_Seg07 Rope4_Seg06
Rope4_Seg08 Rope4_Seg07
Rope4_Seg09 Rope4_Seg08
L_rear_hand01 Rope4_Seg09
L_rear_hand02 Rope4_Seg09
L_rear_hand03 Rope4_Seg09
[BasePosition]
#SegmentName Tx, Ty, Tz, Rx, Ry, Rz, BoneLength
MASTER 0.000000 0.000000 0.000000 -90.000000 0.000000 0.000000 10.000000 
root 0.000000 0.000000 0.000000 0.000000 0.000000 0.000000 10.000000 
chest 0.000000 0.000000 0.000000 0.000000 0.000000 0.000000 10.000000 
L_mid_tent01 0.000000 0.000000 0.000000 0.000000 0.000000 0.000000 10.000000 
R_mid_tent01 0.000000 0.000000 0.000000 0.000000 0.000000 0.000000 10.000000 
spine01 0.000000 0.000000 0.000000 0.000000 0.000000 0.000000 10.000000 
Bip01_Neck 0.000000 0.000000 0.000000 0.000000 0.000000 0.000000 10.000000 
L_humerus 0.000000 0.000000 0.000000 0.000000 0.000000 0.000000 10.000000 
R_humerus 0.000000 0.000000 0.000000 0.000000 0.000000 0.000000 10.000000 
weapon_bone 0.000000 0.000000 0.000000 0.000000 0.000000 0.000000 10.000000 
Bip01_Head 0.000000 0.000000 0.000000 0.000000 0.000000 0.000000 10.000000 
eye_left_bone 0.000000 0.000000 0.000000 0.000000 0.000000 0.000000 10.000000 
eye_right_bone 0.000000 0.000000 0.000000 0.000000 0.000000 0.000000 10.000000 
L_forearm 0.000000 0.000000 0.000000 0.000000 0.000000 0.000000 10.000000 
L_front_hand 0.000000 0.000000 0.000000 0.000000 0.000000 0.000000 10.000000 
L_weapon_bone 0.000000 0.000000 0.000000 0.000000 0.000000 0.000000 10.000000 
L_front_hand01_01 0.000000 0.000000 0.000000 0.000000 0.000000 0.000000 10.000000 
L_front_hand02_01 0.000000 0.000000 0.000000 0.000000 0.000000 0.000000 10.000000 
L_front_hand03_01 0.000000 0.000000 0.000000 0.000000 0.000000 0.000000 10.000000 
L_front_hand01_02 0.000000 0.000000 0.000000 0.000000 0.000000 0.000000 10.000000 
L_front_hand02_02 0.000000 0.000000 0.000000 0.000000 0.000000 0.000000 10.000000 
L_front_hand03_02 0.000000 0.000000 0.000000 0.000000 0.000000 0.000000 10.000000 
R_forearm 0.000000 0.000000 0.000000 0.000000 0.000000 0.000000 10.000000 
R_front_hand 0.000000 0.000000 0.000000 0.000000 0.000000 0.000000 10.000000 
R_weapon_bone 0.000000 0.000000 0.000000 0.000000 0.000000 0.000000 10.000000 
R_front_hand01_01 0.000000 0.000000 0.000000 0.000000 0.000000 0.000000 10.000000 
R_front_hand02_01 0.000000 0.000000 0.000000 0.000000 0.000000 0.000000 10.000000 
R_front_hand03_01 0.000000 0.000000 0.000000 0.000000 0.000000 0.000000 10.000000 
R_front_hand01_02 0.000000 0.000000 0.000000 0.000000 0.000000 0.000000 10.000000 
R_front_hand02_02 0.000000 0.000000 0.000000 0.000000 0.000000 0.000000 10.000000 
R_front_hand03_02 0.000000 0.000000 0.000000 0.000000 0.000000 0.000000 10.000000 
null_rope01_connect 0.000000 0.000000 0.000000 0.000000 0.000000 0.000000 10.000000 
Rope1_Seg01 0.000000 0.000000 0.000000 0.000000 0.000000 0.000000 10.000000 
Rope1_Seg02 0.000000 0.000000 0.000000 0.000000 0.000000 0.000000 10.000000 
Rope1_Seg03 0.000000 0.000000 0.000000 0.000000 0.000000 0.000000 10.000000 
Rope1_Seg04 0.000000 0.000000 0.000000 0.000000 0.000000 0.000000 10.000000 
Rope1_Seg05 0.000000 0.000000 0.000000 0.000000 0.000000 0.000000 10.000000 
Rope1_Seg06 0.000000 0.000000 0.000000 0.000000 0.000000 0.000000 10.000000 
Rope1_Seg07 0.000000 0.000000 0.000000 0.000000 0.000000 0.000000 10.000000 
Rope1_Seg09 0.000000 0.000000 0.000000 0.000000 0.000000 0.000000 10.000000 
L_mid_hand01 0.000000 0.000000 0.000000 0.000000 0.000000 0.000000 10.000000 
L_mid_hand02 0.000000 0.000000 0.000000 0.000000 0.000000 0.000000 10.000000 
L_mid_hand03 0.000000 0.000000 0.000000 0.000000 0.000000 0.000000 10.000000 
null_rope02_connect 0.000000 0.000000 0.000000 0.000000 0.000000 0.000000 10.000000 
Rope2_Seg01 0.000000 0.000000 0.000000 0.000000 0.000000 0.000000 10.000000 
Rope2_Seg02 0.000000 0.000000 0.000000 0.000000 0.000000 0.000000 10.000000 
Rope2_Seg03 0.000000 0.000000 0.000000 0.000000 0.000000 0.000000 10.000000 
Rope2_Seg04 0.000000 0.000000 0.000000 0.000000 0.000000 0.000000 10.000000 
Rope2_Seg05 0.000000 0.000000 0.000000 0.000000 0.000000 0.000000 10.000000 
Rope2_Seg06 0.000000 0.000000 0.000000 0.000000 0.000000 0.000000 10.000000 
Rope2_Seg07 0.000000 0.000000 0.000000 0.000000 0.000000 0.000000 10.000000 
Rope2_Seg09 0.000000 0.000000 0.000000 0.000000 0.000000 0.000000 10.000000 
R_mid_hand01 0.000000 0.000000 0.000000 0.000000 0.000000 0.000000 10.000000 
R_mid_hand02 0.000000 0.000000 0.000000 0.000000 0.000000 0.000000 10.000000 
R_mid_hand03 0.000000 0.000000 0.000000 0.000000 0.000000 0.000000 10.000000 
spine02 0.000000 0.000000 0.000000 0.000000 0.000000 0.000000 10.000000 
spine03 0.000000 0.000000 0.000000 0.000000 0.000000 0.000000 10.000000 
pelvis 0.000000 0.000000 0.000000 0.000000 0.000000 0.000000 10.000000 
null_rope03_connect 0.000000 0.000000 0.000000 0.000000 0.000000 0.000000 10.000000 
null_rope04_connect 0.000000 0.000000 0.000000 0.000000 0.000000 0.000000 10.000000 
Rope3_Seg01 0.000000 0.000000 0.000000 0.000000 0.000000 0.000000 10.000000 
Rope3_Seg02 0.000000 0.000000 0.000000 0.000000 0.000000 0.000000 10.000000 
Rope3_Seg03 0.000000 0.000000 0.000000 0.000000 0.000000 0.000000 10.000000 
Rope3_Seg04 0.000000 0.000000 0.000000 0.000000 0.000000 0.000000 10.000000 
Rope3_Seg05 0.000000 0.000000 0.000000 0.000000 0.000000 0.000000 10.000000 
Rope3_Seg06 0.000000 0.000000 0.000000 0.000000 0.000000 0.000000 10.000000 
Rope3_Seg07 0.000000 0.000000 0.000000 0.000000 0.000000 0.000000 10.000000 
Rope3_Seg08 0.000000 0.000000 0.000000 0.000000 0.000000 0.000000 10.000000 
Rope3_Seg09 0.000000 0.000000 0.000000 0.000000 0.000000 0.000000 10.000000 
R_rear_hand01 0.000000 0.000000 0.000000 0.000000 0.000000 0.000000 10.000000 
R_rear_hand02 0.000000 0.000000 0.000000 0.000000 0.000000 0.000000 10.000000 
R_rear_hand03 0.000000 0.000000 0.000000 0.000000 0.000000 0.000000 10.000000 
Rope4_Seg01 0.000000 0.000000 0.000000 0.000000 0.000000 0.000000 10.000000 
Rope4_Seg02 0.000000 0.000000 0.000000 0.000000 0.000000 0.000000 10.000000 
Rope4_Seg03 0.000000 0.000000 0.000000 0.000000 0.000000 0.000000 10.000000 
Rope4_Seg04 0.000000 0.000000 0.000000 0.000000 0.000000 0.000000 10.000000 
Rope4_Seg05 0.000000 0.000000 0.000000 0.000000 0.000000 0.000000 10.000000 
Rope4_Seg06 0.000000 0.000000 0.000000 0.000000 0.000000 0.000000 10.000000 
Rope4_Seg07 0.000000 0.000000 0.000000 0.000000 0.000000 0.000000 10.000000 
Rope4_Seg08 0.000000 0.000000 0.000000 0.000000 0.000000 0.000000 10.000000 
Rope4_Seg09 0.000000 0.000000 0.000000 0.000000 0.000000 0.000000 10.000000 
L_rear_hand01 0.000000 0.000000 0.000000 0.000000 0.000000 0.000000 10.000000 
L_rear_hand02 0.000000 0.000000 0.000000 0.000000 0.000000 0.000000 10.000000 
L_rear_hand03 0.000000 0.000000 0.000000 0.000000 0.000000 0.000000 10.000000 
#Beginning of Data. Separated by tabs
#Fr	Tx	Ty	Tz	Rx	Ry	Rz	SF
[MASTER]
1 0.000003 0.000000 0.000000 0.001660 0.001660 0.001660 0.000003
2 -0.000017 100.029823 0.000004 0.001660 0.001660 0.001660 100.029823
[root]
1 -16.502304 9.364135 1448.320068 -91.728889 -11.584497 -89.471619 1448.444336
2 -13.921557 5.986639 1443.490967 -91.728584 -11.584204 -89.471619 1443.570557
[chest]
1 -84.512650 -34.090519 0.000000 -2.170494 -0.006436 168.239609 91.129311
2 -84.512650 -34.090519 0.000000 -2.168147 -0.045497 167.215485 91.129311
[L_mid_tent01]
1 27.299080 22.179258 -249.918686 -20.661392 12.026043 12.983022 252.381683
2 27.299082 22.179251 -249.918686 -20.430868 12.449212 13.642746 252.381683
[R_mid_tent01]
1 23.228794 24.509907 226.238495 -165.192200 -17.956036 24.056787 228.744751
2 23.228794 24.509907 226.238495 -165.499298 -17.028883 24.521475 228.744751
[spine01]
1 -0.361383 -0.195265 0.000000 -0.000001 -0.000007 22.052340 0.410763
2 -0.361383 -0.195265 0.000000 -0.000001 -0.000007 22.052340 0.410763
[Bip01_Neck]
1 165.484543 71.581718 0.000119 176.643677 -1.657967 43.431911 180.302734
2 165.484543 71.581718 0.000119 176.643677 -1.657966 43.431908 180.302734
[L_humerus]
1 -13.983130 -135.272980 -120.471481 -5.480129 68.873367 84.573456 181.680161
2 -13.983130 -135.272980 -120.471481 -6.310891 72.833801 83.172554 181.680161
[R_humerus]
1 -13.983309 -135.273102 125.287651 27.897165 -69.888802 67.752319 184.909012
2 -13.983309 -135.273102 125.287651 33.090229 -72.863037 62.275269 184.909012
[weapon_bone]
1 235.964890 -300.705902 0.000000 0.000000 -89.951546 -128.212341 382.234833
2 235.964890 -300.705902 0.000000 0.000000 -89.951546 -128.212341 382.234833
[Bip01_Head]
1 213.444199 185.715561 11.776983 4.962490 2.797846 -43.898743 283.173798
2 213.441345 185.723450 11.674442 4.965891 3.028567 -43.896420 283.172577
[eye_left_bone]
1 -24.626970 125.451866 -64.772606 0.000000 -90.000000 -99.840431 143.318359
2 -24.626970 125.451866 -64.772606 0.000000 -90.000000 -99.840431 143.318359
[eye_right_bone]
1 -24.626970 125.451866 64.327362 0.000000 -89.965736 80.156380 143.117676
2 -24.626970 125.451866 64.327362 0.000000 -89.955765 80.156372 143.117676
[L_forearm]
1 322.776093 0.000000 -0.000119 0.000396 -0.002314 -109.419975 322.776093
2 322.776093 0.000000 -0.000119 0.000396 -0.002314 -109.419968 322.776093
[L_front_hand]
1 241.149185 -0.042021 -3.300071 -178.667953 -1.835447 -27.422350 241.171753
2 241.149185 -0.042021 -3.300071 -178.667953 -1.835447 -27.422344 241.171753
[L_weapon_bone]
1 156.183838 0.000000 0.000000 0.000014 0.000007 0.000001 156.183838
2 156.183838 0.000000 0.000000 0.000014 0.000007 0.000001 156.183838
[L_front_hand01_01]
1 86.095154 20.947098 -0.655860 -0.366594 -0.477154 75.385574 88.609184
2 86.095154 20.947098 -0.655860 -0.366594 -0.477154 75.385574 88.609184
[L_front_hand02_01]
1 86.935165 -11.437475 24.513514 154.399796 -59.883835 -61.369587 91.046425
2 86.935165 -11.437475 24.513514 154.399796 -59.883835 -61.369587 91.046425
[L_front_hand03_01]
1 86.637497 -14.123976 -20.424902 -153.913849 58.118122 -62.702866 90.126129
2 86.637497 -14.123976 -20.424902 -153.913849 58.118122 -62.702866 90.126129
[L_front_hand01_02]
1 71.020905 -0.000179 0.000030 0.000322 -0.002325 -105.760704 71.020905
2 71.020905 -0.000179 0.000030 0.000321 -0.002325 -105.723465 71.020905
[L_front_hand02_02]
1 71.020927 -0.000119 0.000060 0.000322 -0.002325 -105.760704 71.020927
2 71.020927 -0.000119 0.000060 0.000321 -0.002325 -105.723465 71.020927
[L_front_hand03_02]
1 71.020905 -0.000060 0.000060 0.000322 -0.002325 -105.760704 71.020905
2 71.020905 -0.000060 0.000060 0.000321 -0.002325 -105.723465 71.020905
[R_forearm]
1 322.776428 -0.000060 0.000030 0.202103 0.065158 -108.062805 322.776428
2 322.776428 -0.000060 0.000030 0.202103 0.065158 -108.062805 322.776428
[R_front_hand]
1 238.847015 -0.006795 2.210259 -2.635298 -10.645461 -26.312506 238.857239
2 238.847015 -0.006795 2.210259 -2.635298 -10.645461 -26.312506 238.857239
[R_weapon_bone]
1 155.664093 0.002503 -0.000030 0.003487 0.001180 -90.988930 155.664078
2 155.664093 0.002503 -0.000030 0.003487 0.001180 -90.988930 155.664078
[R_front_hand01_01]
1 87.624611 14.231146 22.918642 -154.633499 -59.950619 61.746044 91.683487
2 87.624611 14.231146 22.918642 -154.633499 -59.950619 61.746044 91.683487
[R_front_hand02_01]
1 89.356956 14.367283 -19.491137 154.602661 58.302849 63.744389 92.579636
2 89.356956 14.367283 -19.491137 154.602661 58.302849 63.744389 92.579636
[R_front_hand03_01]
1 87.286232 -22.307278 -0.143439 0.162155 -0.423168 -75.767921 90.091743
2 87.286232 -22.307278 -0.143439 0.162155 -0.423168 -75.767921 90.091743
[R_front_hand01_02]
1 71.020905 0.000060 0.000119 0.002323 -0.000334 106.381714 71.020905
2 71.020905 0.000060 0.000119 0.002323 -0.000334 106.381706 71.020905
[R_front_hand02_02]
1 71.020844 -0.000030 -0.000119 0.002323 -0.000334 106.381714 71.020836
2 71.020844 -0.000030 -0.000119 0.002323 -0.000334 106.381706 71.020836
[R_front_hand03_02]
1 71.020905 0.000000 0.000030 0.002323 -0.000334 106.381714 71.020905
2 71.020905 0.000000 0.000030 0.002323 -0.000334 106.381706 71.020905
[null_rope01_connect]
1 328.732483 0.000000 -0.000238 -154.483337 -64.791321 -118.914307 328.732483
2 328.732483 0.000000 -0.000238 -154.028656 -64.785530 -120.077255 328.732483
[Rope1_Seg01]
1 0.000000 0.000038 0.000000 48.422447 2.731524 -119.988655 0.000038
2 -0.000002 0.000036 0.000008 62.141464 1.226203 -113.314484 0.000037
[Rope1_Seg02]
1 139.999863 -0.000179 0.000000 8.021205 4.009123 1.979545 139.999863
2 139.999863 -0.000179 0.000000 5.120125 3.583773 0.171851 139.999863
[Rope1_Seg03]
1 139.999924 0.000060 -0.000060 5.103511 3.666949 0.417751 139.999924
2 139.999924 0.000060 -0.000060 1.904484 2.452357 -1.011409 139.999924
[Rope1_Seg04]
1 139.999924 -0.000060 -0.000119 5.880709 4.560151 0.652331 139.999924
2 139.999924 -0.000060 -0.000119 4.050341 3.743892 -0.148136 139.999924
[Rope1_Seg05]
1 139.999832 0.000119 -0.000060 12.602881 7.119023 5.007277 139.999832
2 139.999832 0.000119 -0.000060 9.237155 6.200239 2.938037 139.999832
[Rope1_Seg06]
1 139.999954 0.000119 -0.000060 5.762399 4.043113 1.885043 139.999954
2 139.999954 0.000119 -0.000060 3.912917 3.176184 0.956726 139.999954
[Rope1_Seg07]
1 139.999985 0.000060 0.000000 2.615274 2.184569 0.600747 139.999985
2 139.999985 0.000060 0.000000 1.856026 1.723274 0.291762 139.999985
[Rope1_Seg09]
1 121.602913 0.000119 -0.000089 -89.793175 -1.359789 0.847147 121.602913
2 121.602913 0.000119 -0.000089 -89.793175 -1.359789 0.847147 121.602913
[L_mid_hand01]
1 103.859421 1.038730 8.195221 130.544373 -67.584534 -38.866943 104.187431
2 103.859421 1.038730 8.195221 128.584747 -66.574249 -36.738117 104.187431
[L_mid_hand02]
1 105.572853 -4.139662 -10.864139 -168.923172 43.409309 -73.498886 106.211075
2 105.572853 -4.139662 -10.864139 -167.717957 43.141708 -71.740593 106.211075
[L_mid_hand03]
1 104.641464 17.579376 -3.913581 -6.012627 17.808174 74.893669 106.179977
2 104.641464 17.579376 -3.913581 -6.429527 17.666080 73.526825 106.179977
[null_rope02_connect]
1 328.732849 0.000179 -0.000119 -140.208786 68.099197 -35.150627 328.732849
2 328.732849 0.000179 -0.000119 -141.449753 69.014717 -36.111202 328.732849
[Rope2_Seg01]
1 0.000095 0.000153 0.000000 33.501648 6.725879 -38.305103 0.000180
2 0.000095 0.000153 0.000004 25.380941 6.631789 -42.048237 0.000180
[Rope2_Seg02]
1 139.999741 -0.000060 -0.000119 -17.407764 -3.917730 -7.866438 139.999756
2 139.999741 -0.000060 -0.000119 -15.367921 -1.903994 -7.993958 139.999756
[Rope2_Seg03]
1 140.000107 0.000030 0.000000 -1.468170 1.510309 -1.551163 140.000107
2 140.000107 0.000030 0.000000 3.301581 3.083753 0.714205 140.000107
[Rope2_Seg04]
1 139.999802 0.000000 -0.000060 -4.844788 0.222552 -3.205948 139.999802
2 139.999802 0.000000 -0.000060 -6.836239 -0.288698 -4.609871 139.999802
[Rope2_Seg05]
1 139.999985 -0.000060 0.000119 -33.322586 -7.679160 -27.427406 139.999985
2 139.999985 -0.000060 0.000119 -31.534618 -7.702370 -27.712685 139.999985
[Rope2_Seg06]
1 139.999893 -0.000030 -0.000119 -14.389011 7.690343 -24.205910 139.999893
2 139.999893 -0.000030 -0.000119 -12.848334 6.350075 -21.731619 139.999893
[Rope2_Seg07]
1 139.999893 0.000060 -0.000060 -2.536506 4.817746 -7.834901 139.999893
2 139.999893 0.000060 -0.000060 -2.648479 4.253470 -7.636674 139.999893
[Rope2_Seg09]
1 121.338966 0.000089 -0.000060 33.793236 -1.359788 -0.847141 121.338966
2 121.338966 0.000089 -0.000060 33.793236 -1.359788 -0.847141 121.338966
[R_mid_hand01]
1 104.680779 11.144459 -10.335981 -16.212063 45.237247 70.462852 105.778534
2 104.680779 11.144459 -10.335981 -16.756907 45.078602 69.693840 105.778534
[R_mid_hand02]
1 104.070427 2.443552 8.231699 49.067368 -67.749771 39.286453 104.424065
2 104.070427 2.443552 8.231699 49.966972 -67.318741 38.315926 104.424065
[R_mid_hand03]
1 106.028137 -11.221827 -5.996406 -177.101105 15.551026 -76.585571 106.788818
2 106.028137 -11.221827 -5.996406 -176.940826 15.523118 -75.998016 106.788818
[spine02]
1 129.756927 0.001550 0.000119 0.360061 -4.044797 -12.915058 129.756927
2 129.756927 0.001550 0.000119 0.360061 -4.044797 -12.915058 129.756927
[spine03]
1 78.614075 0.081744 -4.899007 1.896495 3.831288 16.473045 78.766617
2 78.614075 0.081743 -4.899006 1.896495 3.831288 16.473049 78.766609
[pelvis]
1 169.435242 0.051022 0.000000 -0.060465 -0.180225 14.087930 169.435257
2 169.435242 0.051022 0.000000 -0.060465 -0.180225 14.087926 169.435257
[null_rope03_connect]
1 -1.257226 -2.466202 137.391083 156.329987 -89.381348 -94.430771 137.418976
2 -1.257226 -2.466202 137.391083 156.294510 -89.381973 -94.395203 137.418976
[null_rope04_connect]
1 -1.259640 -2.480268 -137.844437 156.329987 -89.381348 -94.430771 137.872513
2 -1.259640 -2.480268 -137.844437 156.294510 -89.381973 -94.395203 137.872513
[Rope3_Seg01]
1 -0.000019 0.000000 0.000000 18.849709 31.712629 -78.662895 0.000019
2 -0.000020 -0.000008 0.000000 20.275431 29.236099 -74.862762 0.000021
[Rope3_Seg02]
1 139.999924 -0.000119 0.000060 -0.447675 -1.489429 3.351544 139.999924
2 139.999924 -0.000119 0.000060 -0.242803 -0.989570 1.388634 139.999924
[Rope3_Seg03]
1 139.999924 -0.000119 0.000119 -0.652006 -1.679359 3.741380 139.999924
2 139.999924 -0.000119 0.000119 -0.289064 -1.023271 1.537515 139.999924
[Rope3_Seg04]
1 139.999924 0.000119 0.000000 -2.313112 -0.937602 11.814933 139.999924
2 139.999924 0.000119 0.000000 -1.006552 0.419969 7.545940 139.999924
[Rope3_Seg05]
1 139.999924 -0.000238 0.000060 -0.919270 -2.476964 1.179155 139.999924
2 139.999924 -0.000238 0.000060 -0.078190 -1.903651 -1.446369 139.999924
[Rope3_Seg06]
1 139.999893 -0.000119 -0.000060 2.831627 -4.220958 -23.507914 139.999893
2 139.999893 -0.000119 -0.000060 1.970480 -5.832114 -18.774168 139.999893
[Rope3_Seg07]
1 139.999771 0.000060 -0.000119 -0.115968 -3.852719 -17.951649 139.999771
2 139.999771 0.000060 -0.000119 0.355850 -4.900815 -14.726437 139.999771
[Rope3_Seg08]
1 139.999985 -0.000060 0.000000 -0.587908 -1.908966 -8.052941 139.999985
2 139.999985 -0.000060 0.000000 -0.121380 -2.573401 -7.312149 139.999985
[Rope3_Seg09]
1 90.185997 -0.000179 -0.000060 89.793228 -1.359877 -0.847183 90.185997
2 90.185997 -0.000179 -0.000060 89.793228 -1.359877 -0.847183 90.185997
[R_rear_hand01]
1 103.366196 -6.073594 -10.757982 -177.714203 24.565960 -73.910950 104.101845
2 103.366196 -6.073594 -10.757982 -177.375809 24.533825 -73.108765 104.101845
[R_rear_hand02]
1 100.509819 12.039542 -7.992327 -12.874829 36.868488 72.167213 101.543350
2 100.509819 12.039542 -7.992327 -13.406411 36.702328 71.277184 101.543350
[R_rear_hand03]
1 101.539970 5.215704 5.435467 71.484581 -71.816628 21.513813 101.819031
2 101.539970 5.215704 5.435467 72.167244 -71.123337 20.795889 101.819031
[Rope4_Seg01]
1 -0.000019 -0.000076 -0.000153 -99.760712 25.894487 -100.090805 0.000172
2 -0.000019 -0.000072 -0.000153 -98.645470 25.255280 -97.734520 0.000170
[Rope4_Seg02]
1 139.999985 0.000060 0.000119 -0.063160 -3.960542 0.157253 139.999985
2 139.999985 0.000060 0.000119 0.016154 -3.619182 0.011045 139.999985
[Rope4_Seg03]
1 139.999924 0.000000 -0.000238 0.089999 -5.079241 0.017469 139.999924
2 139.999924 0.000000 -0.000238 0.168164 -5.177831 -0.288134 139.999924
[Rope4_Seg04]
1 139.999985 0.000000 0.000119 1.994027 -20.018826 -3.032739 139.999985
2 139.999985 0.000000 0.000119 2.138644 -19.657578 -3.868498 139.999985
[Rope4_Seg05]
1 139.999802 -0.000060 -0.000119 -0.127024 11.941603 3.429988 139.999802
2 139.999802 -0.000060 -0.000119 0.079037 16.905897 5.030030 139.999802
[Rope4_Seg06]
1 139.999924 0.000000 0.000060 3.622995 33.994278 8.103860 139.999924
2 139.999924 0.000000 0.000060 3.834186 32.173012 9.065609 139.999924
[Rope4_Seg07]
1 139.999802 0.000000 0.000000 1.981360 11.157397 2.203182 139.999802
2 139.999802 0.000000 0.000000 1.488793 9.313118 2.232109 139.999802
[Rope4_Seg08]
1 139.999924 0.000000 0.000119 -0.492763 4.501896 0.769279 139.999924
2 139.999924 0.000000 0.000119 -0.723544 4.088579 0.896345 139.999924
[Rope4_Seg09]
1 90.185791 0.000060 0.000060 -135.617828 2.228885 0.850567 90.185791
2 90.185791 0.000060 0.000060 -135.617828 2.228885 0.850567 90.185791
[L_rear_hand01]
1 101.696655 -8.392275 -7.654577 -12.874829 -36.868488 107.832764 102.329041
2 101.696655 -8.392275 -7.654577 -14.676043 -36.272404 110.857796 102.329041
[L_rear_hand02]
1 102.726799 -1.568258 5.773216 71.484581 71.816628 158.486160 102.900848
2 102.726799 -1.568258 5.773216 73.610298 69.437729 160.740753 102.900848
[L_rear_hand03]
1 104.552910 9.721220 -10.420293 -177.714203 -24.565960 -106.089035 105.519653
2 104.552910 9.721220 -10.420293 -176.571304 -24.441328 -108.830589 105.519653
